<?xml version="1.0" encoding="utf-8"?>
<!-- Generator: Adobe Illustrator 15.1.0, SVG Export Plug-In . SVG Version: 6.00 Build 0)  -->
<!DOCTYPE svg PUBLIC "-//W3C//DTD SVG 1.1//EN" "http://www.w3.org/Graphics/SVG/1.1/DTD/svg11.dtd">
<svg version="1.1" id="Layer_1" xmlns="http://www.w3.org/2000/svg" xmlns:xlink="http://www.w3.org/1999/xlink" x="0px" y="0px"
	 width="234.957px" height="48.246px" viewBox="0 0 234.957 48.246" enable-background="new 0 0 234.957 48.246"
	 xml:space="preserve">
<g>
	<path fill="#B3B3B3" d="M64.228,31.299c-2.413,0-4.342-0.724-5.729-2.11c-1.387-1.388-2.051-3.378-2.051-5.851
		c0-2.533,0.664-4.583,1.93-6.03c1.266-1.448,3.015-2.171,5.246-2.171c2.051,0,3.679,0.604,4.885,1.869
		c1.206,1.267,1.809,2.956,1.809,5.187v1.81H59.885c0.061,1.507,0.482,2.653,1.206,3.497c0.724,0.845,1.87,1.206,3.256,1.206
		c0.905,0,1.81-0.061,2.594-0.241c0.784-0.181,1.628-0.482,2.593-0.844v2.714c-0.785,0.361-1.629,0.663-2.473,0.844
		C66.218,31.36,65.252,31.299,64.228,31.299 M63.564,17.67c-1.085,0-1.93,0.362-2.533,1.025c-0.603,0.663-1.025,1.628-1.146,2.955
		h7.116c0-1.266-0.301-2.292-0.904-2.955C65.494,18.032,64.649,17.67,63.564,17.67"/>
	<rect x="74.058" y="9.046" fill="#B3B3B3" width="3.316" height="22.012"/>
	<path fill="#B3B3B3" d="M91.909,31.058l-0.664-2.171h-0.121c-0.724,0.965-1.507,1.628-2.292,1.93
		c-0.784,0.302-1.749,0.543-2.955,0.543c-1.508,0-2.714-0.423-3.619-1.267c-0.905-0.845-1.267-1.99-1.267-3.498
		c0-1.628,0.603-2.834,1.809-3.618c1.206-0.784,3.016-1.267,5.488-1.327l2.715-0.06v-0.845c0-1.024-0.242-1.749-0.725-2.231
		c-0.482-0.482-1.205-0.723-2.17-0.723c-0.784,0-1.568,0.12-2.292,0.361c-0.724,0.242-1.447,0.543-2.11,0.845l-1.086-2.353
		c0.844-0.422,1.749-0.784,2.774-1.024c1.025-0.241,1.93-0.362,2.834-0.362c1.99,0,3.499,0.422,4.523,1.326
		c1.025,0.905,1.508,2.231,1.508,4.101v10.373H91.909z M86.963,28.766c1.206,0,2.171-0.361,2.895-1.025
		c0.724-0.663,1.085-1.628,1.085-2.834V23.58l-1.99,0.06c-1.568,0.061-2.713,0.302-3.437,0.784
		c-0.724,0.482-1.086,1.206-1.086,2.171c0,0.724,0.181,1.267,0.603,1.629C85.456,28.585,86.119,28.766,86.963,28.766"/>
	<path fill="#B3B3B3" d="M109.397,26.595c0,1.508-0.543,2.714-1.688,3.498c-1.146,0.783-2.714,1.206-4.765,1.206
		c-2.11,0-3.739-0.302-5.005-0.965V27.44c1.809,0.844,3.558,1.266,5.126,1.266c2.05,0,3.075-0.603,3.075-1.869
		c0-0.422-0.12-0.724-0.362-0.965c-0.241-0.241-0.603-0.543-1.146-0.844c-0.542-0.301-1.267-0.604-2.17-0.965
		c-1.81-0.724-3.016-1.387-3.68-2.11c-0.663-0.724-0.964-1.629-0.964-2.714c0-1.327,0.543-2.352,1.628-3.136
		c1.085-0.784,2.533-1.085,4.402-1.085c1.81,0,3.558,0.362,5.186,1.146l-1.085,2.472c-1.688-0.723-3.076-1.025-4.282-1.025
		c-1.748,0-2.653,0.482-2.653,1.508c0,0.482,0.241,0.905,0.663,1.267c0.423,0.362,1.447,0.784,3.016,1.387
		c1.267,0.482,2.232,0.964,2.834,1.387c0.603,0.422,1.025,0.904,1.326,1.447C109.277,25.208,109.397,25.811,109.397,26.595"/>
	<path fill="#B3B3B3" d="M118.806,28.645c0.783,0,1.628-0.12,2.412-0.361v2.473c-0.362,0.181-0.844,0.302-1.448,0.422
		c-0.603,0.121-1.205,0.182-1.809,0.182c-3.136,0-4.704-1.688-4.704-4.945v-8.443h-2.111v-1.447l2.292-1.206l1.146-3.317h2.051
		v3.498h4.462v2.533h-4.462v8.383c0,0.783,0.181,1.387,0.603,1.749C117.66,28.525,118.202,28.645,118.806,28.645"/>
	<path fill="#B3B3B3" d="M124.173,11.277c0-0.604,0.181-1.025,0.482-1.387s0.784-0.482,1.388-0.482c0.603,0,1.024,0.181,1.386,0.482
		c0.362,0.302,0.483,0.784,0.483,1.387c0,0.543-0.182,1.025-0.483,1.327c-0.301,0.301-0.783,0.482-1.386,0.482
		c-0.604,0-1.086-0.181-1.388-0.482S124.173,11.82,124.173,11.277 M127.73,31.058h-3.316v-15.62h3.316V31.058z"/>
	<path fill="#B3B3B3" d="M138.768,31.299c-2.353,0-4.162-0.663-5.367-2.051c-1.207-1.387-1.87-3.377-1.87-5.971
		c0-2.653,0.663-4.643,1.93-6.091c1.267-1.447,3.137-2.11,5.548-2.11c1.629,0,3.137,0.301,4.463,0.905l-1.025,2.653
		c-1.386-0.543-2.532-0.844-3.497-0.844c-2.714,0-4.041,1.809-4.041,5.367c0,1.749,0.362,3.075,1.025,3.98
		c0.664,0.904,1.688,1.326,2.955,1.326c1.508,0,2.896-0.361,4.222-1.085v2.895c-0.603,0.362-1.206,0.603-1.931,0.724
		C140.456,31.119,139.731,31.299,138.768,31.299"/>
	<path fill="#B3B3B3" d="M157.281,26.595c0,1.508-0.543,2.714-1.688,3.498c-1.146,0.783-2.714,1.206-4.765,1.206
		c-2.11,0-3.739-0.302-5.005-0.965V27.44c1.809,0.844,3.558,1.266,5.126,1.266c2.05,0,3.075-0.603,3.075-1.869
		c0-0.422-0.12-0.724-0.361-0.965s-0.603-0.543-1.146-0.844s-1.267-0.604-2.171-0.965c-1.811-0.724-3.016-1.387-3.68-2.11
		c-0.663-0.724-0.964-1.629-0.964-2.714c0-1.327,0.542-2.352,1.628-3.136c1.085-0.784,2.533-1.085,4.402-1.085
		c1.809,0,3.558,0.362,5.186,1.146l-1.085,2.472c-1.688-0.723-3.075-1.025-4.282-1.025c-1.748,0-2.653,0.482-2.653,1.508
		c0,0.482,0.241,0.905,0.663,1.267c0.423,0.362,1.447,0.784,3.016,1.387c1.267,0.482,2.232,0.964,2.835,1.387
		s1.025,0.904,1.326,1.447C157.161,25.208,157.281,25.811,157.281,26.595"/>
	<path fill="#B3B3B3" d="M167.715,31.299c-2.413,0-4.343-0.724-5.729-2.11c-1.387-1.388-2.051-3.378-2.051-5.851
		c0-2.533,0.664-4.583,1.931-6.03c1.266-1.448,3.015-2.171,5.246-2.171c2.051,0,3.679,0.604,4.886,1.869
		c1.205,1.267,1.809,2.956,1.809,5.187v1.81h-10.434c0.061,1.507,0.482,2.653,1.206,3.497c0.724,0.845,1.87,1.206,3.257,1.206
		c0.905,0,1.81-0.061,2.594-0.241c0.783-0.181,1.628-0.482,2.593-0.844v2.714c-0.784,0.361-1.628,0.663-2.472,0.844
		C169.705,31.36,168.8,31.299,167.715,31.299 M167.111,17.67c-1.086,0-1.93,0.362-2.533,1.025c-0.603,0.663-1.025,1.628-1.146,2.955
		h7.117c0-1.266-0.302-2.292-0.905-2.955C169.041,18.032,168.137,17.67,167.111,17.67"/>
	<path fill="#B3B3B3" d="M187.314,31.058l-0.663-2.171h-0.121c-0.724,0.965-1.507,1.628-2.292,1.93
		c-0.783,0.302-1.749,0.543-2.954,0.543c-1.508,0-2.714-0.423-3.619-1.267c-0.904-0.845-1.267-1.99-1.267-3.498
		c0-1.628,0.604-2.834,1.809-3.618c1.207-0.784,3.017-1.267,5.489-1.327l2.713-0.06v-0.845c0-1.024-0.241-1.749-0.724-2.231
		c-0.481-0.482-1.205-0.723-2.171-0.723c-0.783,0-1.567,0.12-2.291,0.361c-0.724,0.242-1.447,0.543-2.11,0.845l-1.087-2.353
		c0.845-0.422,1.75-0.784,2.775-1.024c1.025-0.241,1.93-0.362,2.834-0.362c1.99,0,3.497,0.422,4.523,1.326
		c1.025,0.905,1.508,2.231,1.508,4.101v10.373H187.314z M182.369,28.766c1.207,0,2.171-0.361,2.895-1.025
		c0.724-0.663,1.086-1.628,1.086-2.834V23.58l-1.99,0.06c-1.568,0.061-2.714,0.302-3.438,0.784s-1.085,1.206-1.085,2.171
		c0,0.724,0.181,1.267,0.603,1.629C180.861,28.585,181.585,28.766,182.369,28.766"/>
	<path fill="#B3B3B3" d="M202.271,15.137c0.664,0,1.206,0.061,1.628,0.121l-0.301,3.075c-0.482-0.121-0.965-0.181-1.448-0.181
		c-1.326,0-2.411,0.422-3.256,1.327c-0.844,0.905-1.267,1.99-1.267,3.377v8.202h-3.316V15.439h2.593l0.422,2.773h0.181
		c0.544-0.904,1.207-1.688,2.051-2.231C200.401,15.439,201.306,15.137,202.271,15.137"/>
	<path fill="#B3B3B3" d="M213.126,31.299c-2.352,0-4.161-0.663-5.367-2.051c-1.206-1.387-1.87-3.377-1.87-5.971
		c0-2.653,0.664-4.643,1.931-6.091c1.266-1.447,3.136-2.11,5.548-2.11c1.628,0,3.137,0.301,4.463,0.905l-1.025,2.653
		c-1.387-0.543-2.533-0.844-3.498-0.844c-2.713,0-4.04,1.809-4.04,5.367c0,1.749,0.361,3.075,1.025,3.98
		c0.663,0.904,1.688,1.326,2.955,1.326c1.507,0,2.895-0.361,4.221-1.085v2.895c-0.603,0.362-1.206,0.603-1.93,0.724
		S214.091,31.299,213.126,31.299"/>
	<path fill="#B3B3B3" d="M234.897,31.058h-3.317v-9.649c0-1.206-0.241-2.111-0.724-2.714s-1.267-0.904-2.292-0.904
		c-1.388,0-2.412,0.422-3.075,1.266c-0.664,0.845-0.965,2.231-0.965,4.162v7.84h-3.317V9.046h3.317v5.608
		c0,0.905-0.061,1.87-0.181,2.895h0.24c0.483-0.724,1.086-1.327,1.869-1.749c0.785-0.423,1.75-0.604,2.835-0.604
		c3.8,0,5.669,1.93,5.669,5.729v10.132H234.897z"/>
	<path fill="#AFB1B3" d="M33.169,16.886H20.565c0.061,0.302,0.181,0.603,0.241,0.844c0.422,1.448,0.664,2.955,0.784,4.523
		c0.061,0.604,0.061,1.267,0.061,1.87c0,0.604,0,1.267-0.061,1.87c-0.12,1.567-0.362,3.075-0.784,4.522
		c-0.061,0.302-0.181,0.604-0.241,0.845h12.604c3.98,0,7.176-3.257,7.176-7.237S37.149,16.886,33.169,16.886"/>
	<path fill="#818181" d="M21.59,25.993c0.061-0.604,0.061-1.267,0.061-1.87c0-0.603,0-1.266-0.061-1.87
		c-0.12-1.568-0.362-3.075-0.784-4.523c-0.061-0.301-0.181-0.603-0.241-0.844H1.085C0.362,19.178,0,21.589,0,24.123
		s0.362,4.945,1.086,7.237h19.479c0.061-0.302,0.181-0.604,0.241-0.845C21.228,29.068,21.47,27.56,21.59,25.993"/>
	<path fill="#F8F8F8" d="M35.34,33.772H19.66c-0.482,1.085-1.025,2.11-1.628,3.075c-0.905,1.508-1.99,2.835-3.196,4.102
		c-0.422,0.422-0.844,0.783-1.267,1.206c-0.844,0.783-1.809,1.447-2.773,2.11c3.799,2.533,8.383,3.98,13.268,3.98
		c8.382,0,15.74-4.282,20.082-10.734C41.914,35.219,38.777,33.772,35.34,33.772"/>
	<path fill="#B3B3B3" d="M18.032,36.847c0.603-0.965,1.146-1.99,1.628-3.075H1.99c1.87,4.282,4.945,7.96,8.865,10.493
		c0.965-0.663,1.87-1.327,2.774-2.11c0.422-0.362,0.844-0.784,1.267-1.206C16.042,39.743,17.127,38.355,18.032,36.847"/>
	<path fill="#B3B3B3" d="M14.835,7.297c-0.422-0.422-0.844-0.784-1.267-1.206c-0.844-0.784-1.809-1.448-2.774-2.111
		C6.935,6.513,3.86,10.192,1.93,14.473H19.6c-0.483-1.085-1.025-2.111-1.628-3.076C17.127,9.89,16.042,8.503,14.835,7.297"/>
	<path fill="#F8F8F8" d="M24.063,0c-4.885,0-9.468,1.447-13.267,3.98c0.964,0.664,1.869,1.327,2.773,2.111
		c0.422,0.362,0.845,0.784,1.267,1.206c1.206,1.267,2.292,2.594,3.196,4.101c0.604,0.965,1.146,1.99,1.628,3.076h15.68
		c3.438,0,6.574-1.448,8.805-3.739C39.803,4.282,32.446,0,24.063,0"/>
</g>
</svg>
