<?xml version="1.0" encoding="utf-8"?>
<!-- Generator: Adobe Illustrator 15.1.0, SVG Export Plug-In . SVG Version: 6.00 Build 0)  -->
<!DOCTYPE svg PUBLIC "-//W3C//DTD SVG 1.1//EN" "http://www.w3.org/Graphics/SVG/1.1/DTD/svg11.dtd">
<svg version="1.1" id="Layer_1" xmlns="http://www.w3.org/2000/svg" xmlns:xlink="http://www.w3.org/1999/xlink" x="0px" y="0px"
	 width="38.997px" height="25.002px" viewBox="0 0 38.997 25.002" enable-background="new 0 0 38.997 25.002" xml:space="preserve">
<path fill="#FFFFFF" d="M37.411,0H1.584H1.273H0.519H0v25.002h38.997V0h-1.349H37.411z M35.851,1.563L20.785,16.654
	c-0.687,0.688-1.886,0.688-2.573,0L3.144,1.563H35.851z M1.56,2.186L11.688,12.33L1.56,22.477V2.186z M2.804,23.439l9.988-10.004
	l4.317,4.323c0.638,0.64,1.486,0.993,2.389,0.993c0.902,0,1.752-0.354,2.389-0.993l4.317-4.324l9.987,10.005H2.804L2.804,23.439z
	 M37.438,22.477L27.309,12.33L37.438,2.183V22.477L37.438,22.477z"/>
</svg>
