<?xml version="1.0" encoding="utf-8"?>
<!-- Generator: Adobe Illustrator 15.1.0, SVG Export Plug-In . SVG Version: 6.00 Build 0)  -->
<!DOCTYPE svg PUBLIC "-//W3C//DTD SVG 1.1//EN" "http://www.w3.org/Graphics/SVG/1.1/DTD/svg11.dtd">
<svg version="1.1" id="Layer_1" xmlns="http://www.w3.org/2000/svg" xmlns:xlink="http://www.w3.org/1999/xlink" x="0px" y="0px"
	 width="33.67px" height="33.67px" viewBox="280.805 404.11 33.67 33.67" enable-background="new 280.805 404.11 33.67 33.67"
	 xml:space="preserve">
		<path fill="#FFFFFF" d="M301.117,437.78c-0.186,0-0.369-0.062-0.519-0.18c-0.203-0.159-0.322-0.403-0.322-0.661v-5.563
			c0-0.017,0.001-0.034,0.002-0.051c0.056-0.929-0.12-1.867-0.509-2.713c-0.105-0.229-0.103-0.491,0.007-0.718
			s0.314-0.392,0.559-0.451c4.121-1.001,6.892-3.888,6.896-7.187c-0.031-1.705-0.717-3.302-1.933-4.498
			c-0.253-0.25-0.322-0.631-0.173-0.953c0.49-1.059,0.42-2.296-0.157-3.288c-0.9,0.364-1.709,0.926-2.365,1.648
			c-0.229,0.252-0.589,0.341-0.91,0.225c-1.303-0.473-2.666-0.713-4.052-0.713c-1.386,0-2.75,0.24-4.052,0.713
			c-0.32,0.117-0.68,0.028-0.909-0.225c-0.656-0.722-1.465-1.285-2.365-1.648c-0.578,0.992-0.648,2.229-0.158,3.288
			c0.149,0.322,0.08,0.704-0.173,0.953c-1.216,1.196-1.902,2.793-1.933,4.498c0.004,3.193,2.492,5.957,6.341,7.041
			c0.363,0.103,0.613,0.434,0.613,0.81v0.438c0.017,0.162,0.014,0.326-0.007,0.488c-0.138,1.027-1.023,1.804-2.059,1.804
			c-0.072,0-0.146-0.004-0.218-0.012c-1.263-0.018-2.136-0.665-2.981-1.291c-0.229-0.17-0.459-0.341-0.703-0.503
			c1.042,1.446,2.132,2.894,3.736,2.894h1.391c0.465,0,0.841,0.377,0.841,0.841v4.173c0,0.258-0.119,0.502-0.322,0.661
			c-0.203,0.16-0.469,0.217-0.72,0.155c-1.9-0.467-3.69-1.243-5.322-2.309c-1.59-1.038-2.991-2.324-4.164-3.822
			c-1.173-1.499-2.084-3.168-2.71-4.96c-0.642-1.84-0.965-3.765-0.962-5.721c0-4.495,1.751-8.723,4.931-11.903
			s7.408-4.931,11.904-4.931c4.497,0,8.725,1.751,11.904,4.931s4.931,7.408,4.931,11.904c0.004,1.955-0.32,3.88-0.962,5.72
			c-0.625,1.792-1.537,3.461-2.71,4.96c-1.173,1.498-2.573,2.784-4.163,3.822c-1.632,1.065-3.422,1.842-5.322,2.309
			C301.251,437.772,301.184,437.78,301.117,437.78z M301.958,431.4v4.428c6.443-2.058,10.847-8.03,10.834-14.881
			c0-8.357-6.797-15.154-15.152-15.154s-15.153,6.797-15.153,15.153c-0.012,6.853,4.392,12.825,10.835,14.883v-2.22h-0.55
			c-2.518,0-4.006-2.07-5.202-3.733c-0.586-0.815-1.315-1.83-1.752-1.83c-0.464,0-0.841-0.377-0.841-0.841
			c0-0.465,0.376-0.842,0.841-0.842c2.466,0,3.828,1.01,4.922,1.821c0.752,0.558,1.296,0.961,2.032,0.961
			c0.037,0,0.074,0.002,0.111,0.007c0.218,0.029,0.417-0.126,0.446-0.341c0.003-0.025,0.004-0.053,0.002-0.078
			c-1.916-0.64-3.561-1.681-4.787-3.034c-1.424-1.573-2.177-3.457-2.177-5.448c0-0.005,0-0.01,0-0.014
			c0.034-1.962,0.756-3.812,2.046-5.266c-0.562-1.693-0.222-3.597,0.928-4.991c0.215-0.261,0.566-0.368,0.891-0.27
			c1.239,0.372,2.37,1.033,3.299,1.924c1.329-0.423,2.708-0.637,4.108-0.637s2.778,0.214,4.107,0.637
			c0.931-0.892,2.061-1.552,3.3-1.924c0.324-0.097,0.675,0.009,0.891,0.27c1.15,1.394,1.49,3.297,0.928,4.991
			c1.291,1.455,2.013,3.304,2.046,5.266c0,0.004,0,0.009,0,0.014c0,3.832-2.882,7.187-7.267,8.573
			C301.901,429.655,302.008,430.531,301.958,431.4z"/>
</svg>
