<?xml version="1.0" encoding="utf-8"?>
<!-- Generator: Adobe Illustrator 15.1.0, SVG Export Plug-In . SVG Version: 6.00 Build 0)  -->
<!DOCTYPE svg PUBLIC "-//W3C//DTD SVG 1.1//EN" "http://www.w3.org/Graphics/SVG/1.1/DTD/svg11.dtd">
<svg version="1.1" id="Layer_1" xmlns="http://www.w3.org/2000/svg" xmlns:xlink="http://www.w3.org/1999/xlink" x="0px" y="0px"
	 width="94.094px" height="63.904px" viewBox="0 0 94.094 63.904" enable-background="new 0 0 94.094 63.904" xml:space="preserve">
<g>
	<g>
		<path fill="#B3B4B4" d="M64.321,6.481c-0.445,0-0.758,0.053-1.074,0.131v0.053h0.051c0.212,0.419,0.578,0.709,0.839,1.075
			c0.211,0.42,0.395,0.838,0.604,1.258c0.025-0.026,0.051-0.054,0.051-0.054c0.369-0.261,0.553-0.681,0.553-1.311
			c-0.158-0.184-0.184-0.366-0.315-0.55C64.872,6.822,64.531,6.691,64.321,6.481z M16.646,36.524l-5.27,15.938h-0.032L6.106,36.524
			h-4.5C0.749,43.273,0.213,50.504,0,58.217h3.31c0.106-6.342,0.363-12.104,0.771-17.289h0.032l5.495,17.289h2.764L17.9,40.928
			h0.032c0.578,5.398,0.932,11.161,1.06,17.289h3.631c-0.171-6.556-0.728-13.788-1.671-21.692H16.646z M31.652,55.87
			c0.107-0.836-0.161-2.303-0.803-4.404l-2.86-9.253h-3.566l3.984,12.373c0.599,1.863,0.899,3.094,0.899,3.694
			c0,0.879-0.385,1.672-1.156,2.377c-0.644,0.579-1.49,0.869-2.539,0.869c-0.579,0-1.082-0.033-1.511-0.096v1.934
			c0.878,0.358,1.617,0.54,2.217,0.54c2.25,0,4.316-1.401,6.202-4.204c2.421-3.637,4.371-9.466,5.849-17.487H34.93
			C34.309,47.14,33.216,51.692,31.652,55.87z M79.855,36.524h-3.471v21.692H86.7v-2.669h-6.845V36.524z M70.696,55.805
			c1.692-1.99,2.539-4.936,2.539-8.836c0-7.176-2.816-10.767-8.451-10.767c-2.764,0-4.917,0.91-6.459,2.733
			c-1.693,1.992-2.539,4.927-2.539,8.805c0,3.813,0.749,6.61,2.248,8.387c1.372,1.606,3.439,2.41,6.204,2.41
			c1.032,0,1.979-0.127,2.839-0.381l5.193,3.021l1.416-2.438l-3.988-1.966C70.053,56.482,70.39,56.168,70.696,55.805z M64.59,55.839
			c-1.734,0-3.01-0.652-3.823-1.962c-0.879-1.414-1.318-3.683-1.318-6.812c0-5.463,1.661-8.195,4.98-8.195
			c1.735,0,3.011,0.653,3.825,1.959c0.877,1.415,1.317,3.665,1.317,6.749C69.572,53.084,67.911,55.839,64.59,55.839z M51.734,47.618
			c0,0-3.115-1.776-4.656-2.612c-1.694-0.941-2.612-2.056-2.612-3.34c0-0.837,0.371-1.522,0.973-2.056
			c0.599-0.537,1.457-0.805,2.569-0.805c1.372,0,2.764,0.3,4.174,0.898l0.838-1.861c-1.648-1.071-3.48-1.608-5.493-1.608
			c-1.949,0-3.54,0.541-4.773,1.624c-1.23,1.081-1.846,2.501-1.846,4.258c0,2.125,0.826,3.415,2.474,4.616
			c0,0,3.041,1.743,4.563,2.579c1.648,0.923,2.547,2.023,2.547,3.312c0,1.024-0.443,1.831-1.182,2.409
			c-0.74,0.575-1.762,0.865-3.068,0.865c-1.393,0-2.944-0.428-4.658-1.284l-0.932,1.863c1.992,1.347,4.048,2.025,6.17,2.025
			c2.269,0,4.08-0.59,5.429-1.767c1.348-1.182,2.023-2.691,2.023-4.531C54.273,50.097,53.428,48.818,51.734,47.618z M93.676,36.909
			c-0.262-0.26-0.524-0.497-0.787-0.758c-0.761-1.022-1.705-1.913-2.725-2.646c-0.84-0.578-2.676-1.364-3.015-2.332
			c0,0-0.027-0.027-0.054-0.053c0.577-0.054,1.26-0.264,1.81-0.423c0.89-0.235,1.702-0.182,2.62-0.417
			c0.42-0.105,0.839-0.237,1.26-0.366v-0.237c-0.474-0.471-0.813-1.102-1.311-1.546c-1.336-1.153-2.806-2.279-4.325-3.225
			c-0.813-0.524-1.862-0.863-2.728-1.31c-0.313-0.157-0.836-0.235-1.021-0.499c-0.472-0.576-0.735-1.336-1.075-2.018
			c-0.76-1.44-1.494-3.038-2.148-4.561c-0.472-1.022-0.761-2.043-1.337-2.987c-2.701-4.457-5.636-7.154-10.144-9.803
			c-0.971-0.552-2.123-0.787-3.354-1.075c-0.656-0.027-1.312-0.078-1.967-0.104c-0.42-0.185-0.84-0.684-1.206-0.919
			c-1.495-0.942-5.346-2.987-6.447-0.288c-0.708,1.705,1.048,3.382,1.651,4.247c0.445,0.602,1.023,1.284,1.336,1.965
			c0.184,0.446,0.236,0.918,0.42,1.39c0.42,1.153,0.813,2.438,1.363,3.513c0.287,0.551,0.602,1.128,0.969,1.624
			c0.211,0.289,0.577,0.419,0.656,0.893c-0.366,0.522-0.395,1.31-0.604,1.965c-0.943,2.962-0.576,6.631,0.76,8.807
			c0.419,0.654,1.416,2.097,2.753,1.545c1.179-0.471,0.917-1.965,1.258-3.274c0.078-0.317,0.026-0.524,0.183-0.734v0.054
			c0.366,0.732,0.734,1.438,1.075,2.175c0.813,1.282,2.228,2.62,3.408,3.51c0.627,0.474,1.126,1.285,1.911,1.574v-0.079h-0.051
			c-0.158-0.235-0.393-0.341-0.604-0.523c-0.472-0.472-0.994-1.049-1.363-1.573c-1.1-1.467-2.071-3.093-2.935-4.771
			c-0.42-0.813-0.786-1.704-1.128-2.517c-0.156-0.313-0.156-0.786-0.419-0.942c-0.394,0.576-0.969,1.074-1.257,1.78
			c-0.498,1.128-0.551,2.517-0.735,3.959c-0.104,0.027-0.052,0-0.104,0.052c-0.838-0.209-1.126-1.074-1.441-1.806
			c-0.786-1.863-0.918-4.851-0.236-7c0.184-0.55,0.972-2.279,0.656-2.804c-0.158-0.5-0.683-0.785-0.971-1.18
			c-0.34-0.498-0.709-1.126-0.942-1.678c-0.63-1.467-0.945-3.093-1.624-4.561c-0.315-0.682-0.867-1.39-1.311-2.018
			c-0.5-0.708-1.049-1.206-1.443-2.044c-0.13-0.289-0.313-0.761-0.104-1.074c0.052-0.21,0.157-0.289,0.368-0.342
			c0.339-0.288,1.31,0.078,1.649,0.235c0.97,0.392,1.783,0.761,2.595,1.311c0.367,0.263,0.761,0.76,1.231,0.893h0.552
			c0.838,0.182,1.782,0.051,2.569,0.288c1.388,0.444,2.646,1.101,3.773,1.808c3.433,2.176,6.263,5.27,8.176,8.965
			c0.315,0.602,0.447,1.152,0.735,1.78c0.551,1.287,1.232,2.597,1.781,3.854c0.551,1.232,1.076,2.489,1.863,3.513
			c0.392,0.55,1.965,0.838,2.672,1.127c0.523,0.235,1.337,0.445,1.809,0.732c0.893,0.55,1.781,1.18,2.621,1.783
			c0.418,0.314,1.729,0.97,1.809,1.494c-2.099-0.052-3.723,0.157-5.086,0.734c-0.393,0.157-1.021,0.157-1.074,0.655
			c0.211,0.209,0.236,0.549,0.421,0.839c0.313,0.524,0.862,1.23,1.362,1.599c0.55,0.42,1.101,0.838,1.678,1.204
			c1.021,0.632,2.176,0.997,3.17,1.627c0.578,0.366,1.152,0.838,1.731,1.232c0.287,0.209,0.47,0.551,0.837,0.68v-0.079
			C93.911,37.514,93.858,37.173,93.676,36.909z M88.395,56.008h0.781v2.206h0.575v-2.206h0.753v-0.451h-2.109V56.008z
			 M92.616,57.368l-0.723-1.812h-0.785v2.657h0.513v-2.022h0.029l0.757,2.022h0.391l0.756-2.022v2.022h0.541v-2.657H93.28
			L92.616,57.368z"/>
	</g>
</g>
</svg>
