<?xml version="1.0" encoding="utf-8"?>
<!-- Generator: Adobe Illustrator 15.1.0, SVG Export Plug-In . SVG Version: 6.00 Build 0)  -->
<!DOCTYPE svg PUBLIC "-//W3C//DTD SVG 1.1//EN" "http://www.w3.org/Graphics/SVG/1.1/DTD/svg11.dtd">
<svg version="1.1" id="Layer_1" xmlns="http://www.w3.org/2000/svg" xmlns:xlink="http://www.w3.org/1999/xlink" x="0px" y="0px"
	 width="121.182px" height="48.245px" viewBox="0 0 121.182 48.245" enable-background="new 0 0 121.182 48.245"
	 xml:space="preserve">
<g>
	<g>
		<path fill="#FFFFFF" d="M85.432,39.558h-1.028v-1.417h2.431v-0.635h-3.101v2.68h1.668c0.595,0,0.938,0.275,0.938,0.773v0.544
			c0,0.56-0.381,0.874-1.066,0.874c-0.656,0-1.037-0.314-1.037-0.874v-0.506h-0.67v0.49c0,0.92,0.685,1.517,1.707,1.517
			c1.044,0,1.729-0.597,1.729-1.517v-0.513C87.001,40.117,86.385,39.558,85.432,39.558z M79.685,42.905h0.67v-2.176h2.347v-0.643
			h-2.347v-1.945h2.613v-0.635h-3.283V42.905z M75.494,38.478v0.56h-0.449v0.611h0.449v3.256h0.646v-3.256h1.067v-0.611h-1.067
			v-0.506c0-0.644,0.252-0.904,0.8-0.904h0.336v-0.619h-0.411C75.989,37.008,75.494,37.551,75.494,38.478z M67.706,41.419v-1.771
			h1.052v-0.611h-1.052v-1.134H67.06v1.134h-0.518v0.611h0.518v1.916c0,0.927,0.434,1.34,1.295,1.34h0.473v-0.62h-0.336
			C67.966,42.285,67.706,42.04,67.706,41.419z M64.628,39.435l-0.13-0.397h-0.449v3.867h0.647v-2.436
			c0-0.636,0.465-0.935,1.014-0.935c0.109,0.001,0.22,0.015,0.327,0.038v-0.597c-0.073-0.006-0.147-0.009-0.221-0.008
			C65.373,38.955,64.944,39.124,64.628,39.435z M112.493,15.831l-3.479,5.545l-3.388-5.545h-3.274l4.876,8.008l-4.922,8.283h3.113
			l3.457-5.592l3.389,5.592h3.273l-4.922-8.076l5.036-8.215H112.493z M98.271,26.921l-6.363-11.091h-2.633v16.291h2.633V21.1
			l6.363,11.021h2.656V15.831h-2.656V26.921z M84.293,32.122h2.815V15.831h-2.815V32.122z M82.127,27.244v-3.82h-6.455v2.624h3.64
			v1.035c0,1.703-1.282,2.738-3.549,2.738c-2.242,0-3.525-1.035-3.525-2.738V20.87c0-1.703,1.283-2.738,3.549-2.738
			c2.243,0,3.525,1.035,3.525,2.738v0.76h2.815v-0.921c0-3.152-2.312-5.2-6.364-5.2c-4.029,0-6.341,2.048-6.341,5.2v6.535
			c0,3.152,2.335,5.2,6.364,5.2S82.127,30.396,82.127,27.244z M58.224,21.1l6.363,11.021h2.656V15.831h-2.656v11.091l-6.363-11.091
			h-2.633v16.291h2.633V21.1z M72.858,38.938c-1.075,0-1.639,0.604-1.639,1.601v0.858c0,0.995,0.563,1.607,1.646,1.607
			c1.075,0,1.639-0.612,1.639-1.607v-0.858C74.504,39.542,73.94,38.938,72.858,38.938z M73.856,41.358
			c0,0.682-0.305,1.026-0.998,1.026c-0.694,0-0.991-0.345-0.991-1.026v-0.781c0-0.682,0.305-1.02,0.998-1.02
			c0.694,0,0.991,0.338,0.991,1.02V41.358z M62.606,39.427c-0.307-0.338-0.749-0.518-1.204-0.489c-0.945,0-1.501,0.475-1.501,1.631
			v0.805c0,1.148,0.556,1.631,1.501,1.631c0.455,0.028,0.897-0.151,1.204-0.489l0.122,0.39h0.449v-3.867h-0.449L62.606,39.427z
			 M62.53,41.45c-0.053,0.644-0.426,0.935-1.014,0.935c-0.647,0-0.968-0.321-0.968-1.057v-0.721c0-0.735,0.32-1.05,0.968-1.05
			c0.595,0,0.961,0.291,1.014,0.928V41.45z M57.693,37.506h-2.103v5.398h0.669v-1.961h1.44c1.045,0,1.639-0.543,1.639-1.424v-0.59
			C59.339,38.042,58.745,37.506,57.693,37.506z M58.677,39.52c0,0.514-0.306,0.781-0.945,0.781H56.26v-2.16h1.479
			c0.632,0,0.938,0.275,0.938,0.789V39.52z M40.982,11.153L22.349,0.339V0.338c-0.764-0.451-1.711-0.451-2.476,0v0.001L1.239,11.153
			C0.468,11.592-0.007,12.417,0,13.309v21.628c-0.005,0.438,0.108,0.868,0.327,1.247c0.217,0.38,0.531,0.693,0.911,0.908
			l18.634,10.814l0.001-0.001c0.765,0.452,1.712,0.452,2.477,0l18.635-10.813c0.771-0.439,1.244-1.265,1.237-2.155V13.309
			C42.228,12.417,41.754,11.592,40.982,11.153z M31.869,15.888l-0.003,16.534c0,1.281-1.126,2.341-2.721,2.341
			c-1.143,0-2.46-0.463-3.267-1.468L15.144,20.381v11.976l0.001-0.001c0,1.33-1.073,2.409-2.396,2.409s-2.396-1.079-2.396-2.409
			l0.001,0.001l0.002-16.536c0-1.28,1.126-2.34,2.721-2.34c1.143,0,2.46,0.463,3.267,1.468l0.725,0.871l10.012,12.043V15.888h-0.001
			c0-1.33,1.072-2.408,2.396-2.408C30.797,13.48,31.87,14.558,31.869,15.888L31.869,15.888z M120.287,31.284
			c-0.004-0.05-0.004-0.092-0.004-0.131v-0.13c-0.004-0.098-0.037-0.192-0.095-0.271c-0.073-0.097-0.183-0.158-0.303-0.171
			c0.089-0.012,0.174-0.04,0.252-0.082c0.115-0.076,0.18-0.208,0.17-0.346c0.02-0.19-0.09-0.372-0.269-0.442
			c-0.153-0.05-0.313-0.07-0.475-0.063h-0.605v1.744h0.306v-0.687h0.242c0.117-0.01,0.233,0.01,0.341,0.058
			c0.121,0.094,0.183,0.246,0.161,0.398v0.141l0.008,0.053c0.002,0.007,0.003,0.015,0.004,0.021
			c0.002,0.009,0.002,0.012,0.007,0.016h0.284l-0.011-0.021C120.29,31.344,120.285,31.313,120.287,31.284z M119.829,30.452
			c-0.094,0.031-0.191,0.044-0.291,0.039h-0.273v-0.635h0.262c0.126-0.008,0.252,0.016,0.367,0.068
			c0.084,0.056,0.129,0.154,0.115,0.254C120.018,30.299,119.944,30.413,119.829,30.452z M120.719,29.404
			c-0.296-0.303-0.702-0.47-1.124-0.462c-0.874,0.002-1.58,0.717-1.578,1.595c0.003,0.874,0.708,1.582,1.578,1.585
			c0.875,0.002,1.586-0.71,1.587-1.59C121.183,30.109,121.017,29.704,120.719,29.404z M119.604,31.904
			c-0.365,0.002-0.716-0.143-0.973-0.403c-0.257-0.257-0.399-0.607-0.396-0.972c-0.001-0.756,0.606-1.37,1.358-1.373
			c0.363-0.007,0.713,0.141,0.963,0.405c0.262,0.253,0.405,0.604,0.397,0.968C120.96,31.284,120.355,31.899,119.604,31.904z
			 M40.608,41.315c-0.874,0.002-1.58,0.716-1.578,1.594c0.003,0.875,0.708,1.584,1.578,1.586c0.875,0.002,1.586-0.71,1.588-1.59
			c0-0.423-0.166-0.829-0.463-1.128C41.438,41.474,41.03,41.307,40.608,41.315z M40.618,44.277
			c-0.364,0.002-0.715-0.143-0.973-0.403c-0.257-0.257-0.399-0.607-0.395-0.972c-0.002-0.756,0.605-1.37,1.357-1.373
			c0.363-0.007,0.713,0.141,0.964,0.405c0.261,0.253,0.405,0.604,0.396,0.968C41.974,43.657,41.369,44.272,40.618,44.277z
			 M41.301,43.656c-0.004-0.049-0.004-0.091-0.004-0.13v-0.13c-0.004-0.098-0.037-0.192-0.095-0.271
			c-0.073-0.097-0.183-0.158-0.302-0.171c0.088-0.012,0.173-0.04,0.252-0.082c0.114-0.076,0.179-0.208,0.169-0.346
			c0.02-0.191-0.09-0.372-0.268-0.442c-0.153-0.05-0.314-0.07-0.475-0.063h-0.606v1.743h0.307v-0.686h0.242
			c0.116-0.01,0.233,0.01,0.34,0.058c0.121,0.094,0.183,0.246,0.162,0.398v0.141l0.007,0.053c0.002,0.007,0.004,0.015,0.005,0.021
			c0.001,0.009,0.002,0.011,0.007,0.015h0.283l-0.01-0.02C41.304,43.717,41.299,43.686,41.301,43.656z M40.844,42.825
			c-0.094,0.031-0.192,0.044-0.291,0.039h-0.273v-0.635h0.261c0.126-0.009,0.253,0.015,0.368,0.068
			c0.083,0.055,0.128,0.154,0.115,0.254C41.032,42.673,40.958,42.785,40.844,42.825z"/>
	</g>
</g>
</svg>
