<?xml version="1.0" encoding="utf-8"?>
<!-- Generator: Adobe Illustrator 15.1.0, SVG Export Plug-In . SVG Version: 6.00 Build 0)  -->
<!DOCTYPE svg PUBLIC "-//W3C//DTD SVG 1.1//EN" "http://www.w3.org/Graphics/SVG/1.1/DTD/svg11.dtd">
<svg version="1.1" id="Layer_1" xmlns="http://www.w3.org/2000/svg" xmlns:xlink="http://www.w3.org/1999/xlink" x="0px" y="0px"
	 width="78.776px" height="48.245px" viewBox="258.894 398.899 78.776 48.245"
	 enable-background="new 258.894 398.899 78.776 48.245" xml:space="preserve">
<g>
	<path fill="#B3B3B3" d="M297.83,447.144c-0.26,0-0.519-0.067-0.746-0.199l-2.375-1.405c-0.354-0.198-0.181-0.269-0.064-0.31
		c0.473-0.164,0.569-0.202,1.074-0.488c0.053-0.029,0.123-0.019,0.177,0.014l1.825,1.083c0.066,0.037,0.16,0.037,0.22,0l7.114-4.106
		c0.066-0.037,0.108-0.113,0.108-0.192v-8.21c0-0.08-0.042-0.155-0.11-0.195l-7.111-4.103c-0.065-0.039-0.153-0.039-0.219,0
		l-7.109,4.104c-0.069,0.039-0.113,0.117-0.113,0.194v8.21c0,0.079,0.043,0.153,0.112,0.19l1.949,1.126
		c1.058,0.528,1.705-0.094,1.705-0.72v-8.105c0-0.115,0.092-0.205,0.207-0.205h0.902c0.113,0,0.206,0.09,0.206,0.205v8.105
		c0,1.411-0.769,2.221-2.106,2.221c-0.411,0-0.735,0-1.639-0.445l-1.865-1.074c-0.461-0.267-0.746-0.765-0.746-1.298v-8.21
		c0-0.533,0.285-1.031,0.746-1.296l7.114-4.111c0.45-0.255,1.048-0.255,1.495,0l7.113,4.111c0.461,0.266,0.747,0.763,0.747,1.296
		v8.21c0,0.533-0.286,1.03-0.747,1.298l-7.113,4.107C298.351,447.077,298.093,447.144,297.83,447.144z"/>
	<path fill="#B3B3B3" d="M300.027,441.488c-3.113,0-3.765-1.429-3.765-2.627c0-0.114,0.091-0.205,0.206-0.205h0.92
		c0.103,0,0.188,0.074,0.204,0.175c0.139,0.936,0.553,1.408,2.436,1.408c1.499,0,2.137-0.339,2.137-1.134
		c0-0.458-0.181-0.799-2.51-1.026c-1.946-0.193-3.15-0.623-3.15-2.181c0-1.436,1.21-2.291,3.238-2.291
		c2.279,0,3.407,0.791,3.55,2.488c0.006,0.059-0.015,0.114-0.055,0.158c-0.038,0.041-0.093,0.065-0.15,0.065h-0.923
		c-0.096,0-0.181-0.067-0.2-0.161c-0.221-0.984-0.76-1.3-2.222-1.3c-1.636,0-1.826,0.57-1.826,0.997
		c0,0.518,0.225,0.668,2.434,0.961c2.187,0.289,3.225,0.698,3.225,2.234C303.574,440.6,302.282,441.488,300.027,441.488z"/>
</g>
<g>
	<path fill="#B3B3B3" d="M310.286,432.879c0,0.754-0.617,1.371-1.371,1.371c-0.748,0-1.371-0.609-1.371-1.371
		c0-0.776,0.639-1.371,1.371-1.371C309.655,431.508,310.286,432.102,310.286,432.879z M307.764,432.875
		c0,0.639,0.516,1.153,1.146,1.153c0.639,0,1.153-0.525,1.153-1.153c0-0.639-0.522-1.146-1.153-1.146
		C308.287,431.728,307.764,432.229,307.764,432.875z M308.399,432.109h0.53c0.182,0,0.536,0,0.536,0.406
		c0,0.283-0.181,0.341-0.29,0.378c0.211,0.014,0.226,0.152,0.254,0.348c0.015,0.123,0.036,0.334,0.08,0.406h-0.326
		c-0.008-0.072-0.059-0.464-0.059-0.485c-0.021-0.088-0.051-0.131-0.159-0.131h-0.269v0.616h-0.298V432.109L308.399,432.109z
		 M308.69,432.784h0.239c0.195,0,0.231-0.138,0.231-0.218c0-0.21-0.145-0.21-0.225-0.21h-0.246V432.784L308.69,432.784z"/>
</g>
<path fill="#B3B3B3" d="M275.8,415.024c0-0.328-0.173-0.629-0.456-0.792l-7.542-4.341c-0.127-0.075-0.271-0.114-0.416-0.12
	c-0.013,0-0.067,0-0.078,0c-0.144,0.006-0.287,0.045-0.417,0.12l-7.542,4.341c-0.281,0.162-0.456,0.464-0.456,0.792l0.017,11.688
	c0,0.162,0.084,0.313,0.227,0.394c0.14,0.084,0.313,0.084,0.453,0l4.482-2.566c0.284-0.169,0.456-0.466,0.456-0.791v-5.46
	c0-0.326,0.172-0.627,0.455-0.789l1.909-1.099c0.142-0.082,0.297-0.123,0.457-0.123c0.155,0,0.315,0.041,0.453,0.123l1.908,1.099
	c0.283,0.162,0.456,0.463,0.456,0.789v5.46c0,0.325,0.175,0.624,0.457,0.791l4.481,2.566c0.141,0.084,0.316,0.084,0.456,0
	c0.139-0.08,0.226-0.231,0.226-0.394L275.8,415.024z"/>
<path fill="#B3B3B3" d="M312.091,398.957c-0.142-0.079-0.313-0.077-0.453,0.005c-0.139,0.082-0.225,0.231-0.225,0.393v11.575
	c0,0.114-0.061,0.219-0.159,0.276c-0.099,0.057-0.221,0.057-0.319,0l-1.889-1.088c-0.282-0.162-0.629-0.162-0.91,0l-7.546,4.354
	c-0.282,0.163-0.456,0.463-0.456,0.789v8.71c0,0.326,0.174,0.626,0.456,0.79l7.545,4.357c0.282,0.162,0.629,0.162,0.911,0
	l7.547-4.357c0.281-0.163,0.455-0.464,0.455-0.79v-21.714c0-0.33-0.179-0.635-0.468-0.795L312.091,398.957z M311.391,421.11
	c0,0.081-0.044,0.157-0.114,0.197l-2.591,1.493c-0.07,0.041-0.157,0.041-0.228,0l-2.59-1.493c-0.07-0.04-0.114-0.116-0.114-0.197
	v-2.992c0-0.081,0.044-0.156,0.114-0.197l2.59-1.496c0.07-0.041,0.158-0.041,0.229,0l2.591,1.496
	c0.07,0.041,0.113,0.116,0.113,0.197V421.11L311.391,421.11z"/>
<g>
	<path fill="#B3B3B3" d="M337.216,418.04c0.28-0.163,0.453-0.463,0.453-0.788v-2.111c0-0.325-0.173-0.625-0.453-0.788l-7.497-4.353
		c-0.282-0.164-0.631-0.165-0.913-0.001l-7.543,4.354c-0.282,0.163-0.455,0.463-0.455,0.789v8.708c0,0.327,0.176,0.63,0.46,0.791
		l7.495,4.271c0.276,0.158,0.615,0.159,0.894,0.005l4.534-2.52c0.144-0.08,0.233-0.231,0.234-0.396s-0.086-0.316-0.229-0.398
		l-7.591-4.356c-0.142-0.081-0.229-0.232-0.229-0.395v-2.729c0-0.163,0.087-0.313,0.228-0.395l2.362-1.362
		c0.141-0.081,0.314-0.081,0.455,0l2.363,1.362c0.142,0.081,0.229,0.232,0.229,0.395v2.147c0,0.163,0.087,0.313,0.228,0.395
		c0.142,0.082,0.315,0.081,0.456-0.001L337.216,418.04z"/>
	<path fill="#B3B3B3" d="M329.151,417.632c0.055-0.031,0.121-0.031,0.175,0l1.448,0.835c0.054,0.032,0.087,0.089,0.087,0.152v1.671
		c0,0.063-0.033,0.121-0.087,0.152l-1.448,0.835c-0.054,0.032-0.12,0.032-0.175,0l-1.446-0.835
		c-0.055-0.031-0.088-0.089-0.088-0.152v-1.671c0-0.063,0.033-0.12,0.088-0.152L329.151,417.632z"/>
</g>
<g>
	<g opacity="0.66">
		<path id="XMLID_143_" fill="#B3B3B3" d="M288.421,410.045c-0.28-0.162-0.626-0.162-0.906,0l-7.503,4.33
			c-0.281,0.162-0.453,0.461-0.453,0.785v8.667c0,0.323,0.172,0.622,0.453,0.785l7.503,4.333c0.28,0.162,0.626,0.162,0.906,0
			l7.501-4.333c0.28-0.162,0.453-0.462,0.453-0.785v-8.667c0-0.324-0.172-0.623-0.453-0.785L288.421,410.045z"/>
	</g>
	<g opacity="0.33">
		<g>
			<g>
				<path fill="#4B4B4B" d="M295.937,414.374l-7.524-4.33c-0.074-0.043-0.154-0.074-0.235-0.094l-8.448,14.451
					c0.073,0.082,0.158,0.153,0.253,0.208l7.537,4.334c0.213,0.123,0.467,0.151,0.7,0.087l7.92-14.501
					C296.079,414.47,296.011,414.417,295.937,414.374z"/>
			</g>
		</g>
	</g>
	<g>
		<g>
			<g>
				<path fill="none" d="M296.413,423.826v-8.667c0-0.324-0.195-0.623-0.476-0.785l-7.524-4.33c-0.086-0.05-0.18-0.083-0.276-0.102
					l8.248,14.091C296.402,423.967,296.413,423.897,296.413,423.826z"/>
				<path fill="none" d="M279.981,414.374c-0.281,0.162-0.485,0.461-0.485,0.785v8.667c0,0.323,0.207,0.622,0.487,0.785l7.537,4.333
					c0.177,0.103,0.382,0.14,0.58,0.112l-8.073-14.708L279.981,414.374z"/>
				<path fill="#B3B3B3" d="M295.941,424.611c0.219-0.127,0.382-0.337,0.444-0.577l-8.248-14.091
					c-0.215-0.043-0.444-0.01-0.638,0.102l-7.474,4.304l8.074,14.708c0.115-0.016,0.228-0.053,0.331-0.112L295.941,424.611z"/>
			</g>
		</g>
	</g>
</g>
</svg>
