<?xml version="1.0" encoding="utf-8"?>
<!-- Generator: Adobe Illustrator 15.1.0, SVG Export Plug-In . SVG Version: 6.00 Build 0)  -->
<!DOCTYPE svg PUBLIC "-//W3C//DTD SVG 1.1//EN" "http://www.w3.org/Graphics/SVG/1.1/DTD/svg11.dtd">
<svg version="1.1" id="Layer_1" xmlns="http://www.w3.org/2000/svg" xmlns:xlink="http://www.w3.org/1999/xlink" x="0px" y="0px"
	 width="33.669px" height="33.67px" viewBox="0 0 33.669 33.67" enable-background="new 0 0 33.669 33.67" xml:space="preserve">
<path fill="#FFFFFF" d="M32.962,25.584c-0.565-0.924-1.443-1.999-2.476-3.029c-0.746-0.747-3.31-3.182-4.958-3.182
	c-0.529,0-0.864,0.227-1.053,0.414l-2.194,2.193c-0.037,0.037-0.155,0.08-0.367,0.08c-1.218,0-3.801-1.349-6.381-3.927
	c-3.44-3.441-4.268-6.327-3.847-6.747l2.192-2.193c0.189-0.189,0.415-0.525,0.415-1.053c0.001-1.649-2.435-4.213-3.182-4.959
	C10.367,2.435,7.805,0,6.153,0C5.626,0,5.291,0.226,5.102,0.414L0.713,4.803C-0.583,6.098-0.11,8.63,2.119,12.33
	c1.935,3.212,4.997,6.977,8.619,10.599c6.426,6.425,12.933,10.742,16.191,10.741c0.811,0,1.462-0.242,1.937-0.717l4.389-4.389
	C34.204,27.615,33.27,26.086,32.962,25.584z M27.378,31.465c-0.05,0.048-0.191,0.101-0.449,0.101
	c-2.219,0-8.125-3.549-14.703-10.125c-3.506-3.505-6.455-7.126-8.304-10.196C1.838,7.786,2.034,6.457,2.201,6.29l4.13-4.131
	C6.87,2.368,8.118,3.162,9.624,4.67c1.506,1.507,2.302,2.753,2.51,3.292l-1.936,1.937c-2.018,2.019,0.579,6.454,3.847,9.724
	c2.803,2.803,5.819,4.542,7.869,4.542c0.957,0,1.537-0.378,1.854-0.696l1.938-1.936c0.539,0.208,1.785,1.005,3.293,2.511
	c1.505,1.505,2.302,2.753,2.51,3.292L27.378,31.465z"/>
</svg>
