<?xml version="1.0" encoding="utf-8"?>
<!-- Generator: Adobe Illustrator 15.1.0, SVG Export Plug-In . SVG Version: 6.00 Build 0)  -->
<!DOCTYPE svg PUBLIC "-//W3C//DTD SVG 1.1//EN" "http://www.w3.org/Graphics/SVG/1.1/DTD/svg11.dtd">
<svg version="1.1" id="Layer_1" xmlns="http://www.w3.org/2000/svg" xmlns:xlink="http://www.w3.org/1999/xlink" x="0px" y="0px"
	 width="55.163px" height="49.08px" viewBox="0 0 55.163 49.08" enable-background="new 0 0 55.163 49.08" xml:space="preserve">
<g>
	<g>
		<path fill="#B3B4B4" d="M45.355,15.908c-0.587-0.201-1.179-0.388-1.775-0.56c0.099-0.402,0.19-0.806,0.274-1.211
			c1.344-6.525,0.465-11.782-2.536-13.513c-2.878-1.659-7.584,0.071-12.337,4.207c-0.469,0.409-0.927,0.829-1.374,1.261
			c-0.299-0.287-0.604-0.568-0.914-0.844c-4.981-4.424-9.975-6.287-12.973-4.552c-2.875,1.664-3.727,6.606-2.516,12.79
			c0.12,0.612,0.256,1.222,0.408,1.827c-0.707,0.2-1.389,0.414-2.042,0.642C3.73,17.992,0,21.183,0,24.494
			c0,3.418,4.004,6.848,10.087,8.927c0.494,0.167,0.991,0.322,1.492,0.466c-0.163,0.652-0.307,1.31-0.433,1.97
			c-1.154,6.076-0.253,10.901,2.615,12.555c2.961,1.708,7.932-0.047,12.772-4.278c0.382-0.334,0.766-0.688,1.151-1.061
			c0.484,0.467,0.981,0.921,1.491,1.36c4.688,4.034,9.318,5.663,12.184,4.005c2.959-1.713,3.92-6.896,2.672-13.202
			c-0.096-0.481-0.206-0.974-0.331-1.475c0.349-0.104,0.691-0.209,1.025-0.32c6.324-2.095,10.438-5.482,10.438-8.946
			C55.163,21.171,51.313,17.958,45.355,15.908z M30.528,6.61c4.072-3.545,7.879-4.944,9.613-3.943
			c1.847,1.065,2.565,5.361,1.404,10.995c-0.076,0.366-0.158,0.732-0.248,1.097c-2.288-0.528-4.773-0.922-7.375-1.166
			c-1.517-2.158-3.087-4.12-4.663-5.819C29.672,7.375,30.095,6.987,30.528,6.61z M16.288,27.321
			c0.499,0.964,1.021,1.915,1.564,2.854c0.555,0.958,1.132,1.902,1.732,2.833c-1.807-0.202-3.51-0.476-5.084-0.817
			C14.987,30.618,15.587,28.983,16.288,27.321z M16.285,21.779c-0.687-1.628-1.273-3.229-1.753-4.773
			c1.574-0.353,3.252-0.641,5.001-0.858c-0.585,0.912-1.149,1.84-1.691,2.779C17.301,19.865,16.782,20.816,16.285,21.779z
			 M17.538,24.549c0.726-1.511,1.509-2.994,2.347-4.446c0.837-1.453,1.729-2.873,2.674-4.258c1.641-0.124,3.323-0.189,5.023-0.189
			c1.708,0,3.393,0.065,5.032,0.19c0.936,1.383,1.822,2.799,2.658,4.244c0.841,1.449,1.634,2.926,2.378,4.426
			c-0.736,1.517-1.527,3.006-2.37,4.465c-0.836,1.452-1.719,2.876-2.646,4.271c-1.637,0.116-3.328,0.177-5.052,0.177
			c-1.717,0-3.386-0.053-4.995-0.157c-0.952-1.392-1.852-2.817-2.696-4.276C19.051,27.543,18.266,26.06,17.538,24.549z
			 M37.321,30.159c0.555-0.962,1.088-1.937,1.6-2.923c0.737,1.681,1.359,3.307,1.853,4.853c-1.6,0.365-3.326,0.659-5.146,0.877
			C36.21,32.042,36.775,31.105,37.321,30.159z M38.898,21.78c-0.51-0.967-1.039-1.924-1.587-2.87
			c-0.539-0.932-1.099-1.852-1.677-2.759c1.76,0.223,3.446,0.518,5.029,0.879C40.188,18.553,39.596,20.147,38.898,21.78z
			 M27.608,9.458c1.087,1.178,2.176,2.492,3.246,3.919c-2.172-0.103-4.348-0.104-6.52-0.002
			C25.406,11.962,26.504,10.65,27.608,9.458z M14.901,2.736c1.846-1.067,5.926,0.455,10.228,4.274
			c0.275,0.244,0.551,0.5,0.828,0.764c-1.603,1.722-3.187,3.681-4.699,5.815c-2.594,0.24-5.078,0.627-7.361,1.145
			c-0.14-0.563-0.267-1.13-0.379-1.7C12.48,7.736,13.168,3.739,14.901,2.736z M12.211,31.617c-0.458-0.131-0.911-0.273-1.362-0.427
			c-2.689-0.92-4.911-2.114-6.434-3.418c-1.368-1.172-2.059-2.335-2.059-3.278c0-2.009,2.995-4.571,7.99-6.313
			c0.626-0.218,1.26-0.417,1.898-0.598c0.69,2.245,1.596,4.593,2.688,6.967C13.826,26.959,12.908,29.344,12.211,31.617z
			 M24.981,42.358c-2.14,1.871-4.285,3.198-6.175,3.865h0c-1.698,0.601-3.051,0.617-3.869,0.146
			c-1.74-1.004-2.463-4.878-1.477-10.074c0.118-0.614,0.252-1.226,0.403-1.832c2.259,0.5,4.76,0.859,7.434,1.076
			c1.526,2.147,3.125,4.122,4.735,5.851C25.69,41.721,25.34,42.043,24.981,42.358z M27.673,39.694
			c-1.117-1.205-2.231-2.537-3.319-3.972c1.056,0.042,2.133,0.063,3.228,0.063c1.124,0,2.236-0.025,3.33-0.073
			C29.837,37.17,28.752,38.505,27.673,39.694z M41.983,42.973c-0.328,1.771-0.989,2.951-1.806,3.425
			c-1.739,1.006-5.457-0.302-9.466-3.752c-0.46-0.396-0.923-0.818-1.387-1.265c1.554-1.7,3.107-3.677,4.624-5.872
			c2.666-0.236,5.186-0.623,7.471-1.151c0.112,0.454,0.212,0.899,0.299,1.335C42.27,38.481,42.349,41.002,41.983,42.973z
			 M43.984,31.204c-0.302,0.1-0.611,0.196-0.927,0.289c-0.698-2.21-1.641-4.56-2.794-6.988c1.101-2.37,2.007-4.689,2.686-6.886
			c0.563,0.163,1.111,0.335,1.64,0.518c5.104,1.757,8.218,4.354,8.218,6.357C52.806,26.625,49.444,29.394,43.984,31.204z
			 M27.582,29.419c2.721,0,4.926-2.206,4.926-4.926c0-2.721-2.205-4.927-4.926-4.927c-2.72,0-4.926,2.206-4.926,4.927
			C22.656,27.213,24.861,29.419,27.582,29.419z"/>
	</g>
</g>
</svg>
