<?xml version="1.0" encoding="utf-8"?>
<!-- Generator: Adobe Illustrator 15.1.0, SVG Export Plug-In . SVG Version: 6.00 Build 0)  -->
<!DOCTYPE svg PUBLIC "-//W3C//DTD SVG 1.1//EN" "http://www.w3.org/Graphics/SVG/1.1/DTD/svg11.dtd">
<svg version="1.1" id="Layer_1" xmlns="http://www.w3.org/2000/svg" xmlns:xlink="http://www.w3.org/1999/xlink" x="0px" y="0px"
	 width="151.344px" height="48.246px" viewBox="0 0 151.344 48.246" enable-background="new 0 0 151.344 48.246"
	 xml:space="preserve">
<g>
	<path fill="#B3B3B3" d="M82.833,14.941c0,1.198-0.983,2.267-2.267,2.267c-0.983,0-1.839,0.257-2.566,0.813
		c-0.812,0.513-1.453,1.24-1.966,2.052c-1.027,1.369-1.539,2.994-1.754,3.592v8.125c0,1.24-1.069,2.267-2.352,2.267
		c-1.248-0.01-2.258-1.019-2.267-2.267V14.942c0-1.24,1.026-2.223,2.267-2.223c1.283,0,2.352,0.984,2.352,2.223v0.299
		c0.256-0.299,0.596-0.641,0.898-0.855c1.412-0.94,3.25-1.711,5.388-1.667C81.85,12.719,82.833,13.703,82.833,14.941L82.833,14.941z
		 M81.578,23.365c0.044-5.815,4.576-10.69,10.435-10.69c5.56,0,9.961,4.148,10.307,9.921v0.213c0,0.086,0,0.3-0.043,0.385
		c-0.133,1.027-1.026,1.711-2.224,1.711H86.454c0.213,0.984,0.684,2.096,1.453,2.824c0.898,1.026,2.608,1.796,4.105,1.924
		c1.539,0.128,3.375-0.257,4.447-1.069c0.898-0.941,2.651-0.813,3.207-0.132c0.557,0.595,0.983,1.882,0,2.779
		c-2.096,1.924-4.618,2.823-7.654,2.823c-5.858-0.043-10.392-4.875-10.435-10.691V23.365z M86.24,21.271h12.102
		c-0.428-1.711-2.609-4.233-6.329-4.533C88.378,16.908,86.584,19.518,86.24,21.271 M124.107,31.747c0,1.241-1.027,2.311-2.31,2.311
		c-1.158,0-2.054-0.813-2.268-1.84c-1.622,1.112-3.677,1.84-5.815,1.84c-5.773,0-10.392-4.875-10.392-10.649
		c0-5.859,4.618-10.734,10.392-10.734c2.096,0,4.147,0.684,5.73,1.796v-8.04c0-1.24,1.025-2.31,2.352-2.31
		c1.282,0,2.31,1.069,2.31,2.31L124.107,31.747L124.107,31.747z M113.715,17.336c-1.54,0-2.951,0.642-4.02,1.753
		c-1.069,1.069-1.711,2.608-1.711,4.319c0,1.622,0.642,3.164,1.711,4.233c1.068,1.112,2.479,1.754,4.02,1.754
		c1.581,0,2.95-0.642,4.02-1.754c1.068-1.069,1.711-2.608,1.711-4.233c0-1.711-0.642-3.25-1.711-4.319
		C116.666,17.978,115.297,17.336,113.715,17.336 M132.247,7.329c0,1.284-0.983,2.352-2.31,2.352c-1.283,0-2.31-1.068-2.31-2.352
		V6.431c-0.005-1.27,1.021-2.304,2.291-2.309h0.019c1.326,0,2.31,1.026,2.31,2.31V7.329L132.247,7.329z M132.247,15.072V31.75
		c0,1.284-0.983,2.311-2.31,2.311c-1.271,0.005-2.305-1.021-2.31-2.291v-0.019V15.073c0-1.369,1.026-2.353,2.31-2.353
		C131.263,12.72,132.247,13.704,132.247,15.072L132.247,15.072z M135.183,27.942c0.77-1.026,2.267-1.155,3.207-0.342
		c1.112,0.94,3.037,1.924,4.704,1.881c1.158,0,2.224-0.385,2.907-0.813c0.596-0.513,0.771-0.94,0.771-1.283
		c0-0.213-0.043-0.299-0.128-0.428c-0.044-0.128-0.215-0.299-0.557-0.513c-0.596-0.428-1.881-0.898-3.421-1.198h-0.043
		c-1.326-0.256-2.608-0.595-3.721-1.111c-1.158-0.556-2.184-1.325-2.95-2.48c-0.47-0.77-0.727-1.711-0.727-2.693
		c0-1.968,1.111-3.635,2.522-4.705c1.497-1.025,3.293-1.582,5.261-1.582c2.95,0,5.045,1.412,6.414,2.352
		c1.026,0.684,1.325,2.096,0.684,3.164c-0.684,1.026-2.095,1.326-3.164,0.596c-1.368-0.898-2.565-1.583-3.938-1.583
		c-1.069,0-2.011,0.342-2.566,0.77c-0.556,0.385-0.684,0.77-0.684,0.984c0,0.17,0,0.214,0.085,0.341
		c0.043,0.085,0.171,0.257,0.471,0.428c0.556,0.385,1.668,0.77,3.122,1.026l0.043,0.044h0.043c1.411,0.256,2.736,0.641,3.977,1.24
		c1.158,0.512,2.31,1.325,3.037,2.522c0.513,0.855,0.812,1.839,0.812,2.823c0,2.096-1.158,3.849-2.693,4.965
		c-1.539,1.068-3.464,1.71-5.56,1.71c-3.336-0.044-5.901-1.582-7.612-2.95c-0.941-0.77-1.068-2.225-0.3-3.165H135.183z"/>
	<path fill="#4B4B4B" d="M54.088,37.201c-3.004,1.566-18.567,7.964-21.88,9.691s-5.154,1.711-7.771,0.46
		c-2.618-1.251-19.179-7.94-22.162-9.366c-1.491-0.713-2.275-1.314-2.275-1.882v-5.69c0,0,21.56-4.693,25.042-5.943
		c3.481-1.249,4.688-1.291,7.65-0.209c2.961,1.083,20.673,4.281,23.601,5.353l-0.001,5.609
		C56.293,35.787,55.617,36.405,54.088,37.201"/>
	<path fill="#B3B3B3" d="M54.088,31.51c-3.004,1.564-18.567,7.964-21.88,9.691s-5.154,1.711-7.771,0.46
		C21.82,40.41,5.259,33.72,2.276,32.295c-2.983-1.426-3.046-2.408-0.115-3.555l22.881-8.859c3.48-1.249,4.688-1.291,7.65-0.209
		c2.961,1.082,18.432,7.243,21.359,8.315c2.927,1.072,3.041,1.956,0.033,3.522H54.088z"/>
	<path fill="#4B4B4B" d="M54.088,27.923c-3.004,1.565-18.567,7.965-21.88,9.692c-3.313,1.729-5.154,1.71-7.771,0.459
		c-2.618-1.251-19.179-7.94-22.162-9.366c-1.491-0.713-2.275-1.315-2.275-1.883v-5.69c0,0,21.56-4.694,25.042-5.943
		c3.481-1.249,4.688-1.29,7.65-0.208c2.961,1.082,20.673,4.28,23.601,5.353l-0.001,5.61C56.293,26.509,55.617,27.126,54.088,27.923
		L54.088,27.923z"/>
	<path fill="#B3B3B3" d="M54.088,22.231c-3.004,1.565-18.567,7.965-21.88,9.692c-3.313,1.729-5.154,1.71-7.771,0.459
		c-2.618-1.251-19.179-7.941-22.162-9.366c-2.983-1.426-3.046-2.408-0.115-3.556l22.881-8.858c3.48-1.249,4.688-1.292,7.65-0.209
		c2.961,1.082,18.432,7.242,21.359,8.315c2.927,1.072,3.041,1.957,0.033,3.522H54.088z"/>
	<path fill="#4B4B4B" d="M54.088,18.301c-3.004,1.566-18.567,7.965-21.88,9.695c-3.313,1.731-5.154,1.711-7.771,0.46
		c-2.618-1.252-19.179-7.941-22.162-9.367c-1.491-0.712-2.275-1.314-2.275-1.881v-5.691c0,0,21.56-4.697,25.042-5.946
		c3.481-1.249,4.688-1.291,7.65-0.208c2.961,1.082,20.673,4.28,23.601,5.352l-0.001,5.61C56.293,16.887,55.617,17.504,54.088,18.301
		z"/>
	<path fill="#B3B3B3" d="M54.088,12.609c-3.004,1.566-18.567,7.965-21.88,9.693s-5.154,1.71-7.771,0.459
		c-2.618-1.25-19.179-7.94-22.162-9.366s-3.046-2.408-0.115-3.556L25.042,0.98c3.48-1.249,4.688-1.291,7.65-0.208
		c2.961,1.082,18.432,7.242,21.359,8.314c2.927,1.073,3.041,1.957,0.033,3.522H54.088z"/>
	<path fill="#FFFFFF" d="M30.646,7.634l-1.092,2.628l-1.766-2.932l-5.632-0.506l4.203-1.516L25.1,2.982l3.934,1.54l3.712-1.215
		l-1.005,2.405l3.783,1.416L30.646,7.634z M20.156,16.1l13.045-2.001l-3.939,5.778L20.156,16.1z"/>
	<path fill="#FFFFFF" d="M16.641,8.59c3.851,0,6.972,1.21,6.972,2.702c0,1.493-3.122,2.703-6.972,2.703s-6.972-1.21-6.972-2.703
		C9.668,9.8,12.79,8.59,16.641,8.59"/>
	<polygon fill="#4B4B4B" points="49.007,10.899 41.292,13.945 41.288,7.846 	"/>
	<polygon fill="#4B4B4B" points="41.288,7.846 41.292,13.945 40.457,14.274 32.747,11.224 	"/>
</g>
</svg>
